<?xml version="1.0" standalone="no"?>
<!DOCTYPE svg PUBLIC "-//W3C//DTD SVG 20010904//EN"
 "http://www.w3.org/TR/2001/REC-SVG-20010904/DTD/svg10.dtd">
<svg version="1.0" xmlns="http://www.w3.org/2000/svg"
 width="817.000000pt" height="76.000000pt" viewBox="0 0 817.000000 76.000000"
 preserveAspectRatio="xMidYMid meet">

<g transform="translate(0.000000,76.000000) scale(0.100000,-0.100000)"
fill="#000000" stroke="none">
<path d="M4659 548 c-22 -40 -24 -53 -24 -183 0 -130 2 -143 24 -183 15 -25
32 -42 43 -42 15 0 15 4 -7 36 -24 35 -25 44 -25 189 0 145 1 154 25 189 22
32 22 36 7 36 -11 0 -28 -17 -43 -42z"/>
<path d="M5420 581 c0 -5 6 -14 14 -20 22 -19 36 -93 36 -196 0 -103 -14 -177
-36 -196 -18 -15 -18 -29 0 -29 8 0 25 17 38 38 21 34 23 47 23 187 0 140 -2
153 -23 188 -21 33 -52 50 -52 28z"/>
<path d="M180 370 c0 -144 2 -170 15 -170 12 0 15 14 15 70 l0 70 29 0 c25 0
31 -7 60 -70 18 -42 37 -70 46 -70 20 0 20 0 -15 77 l-30 66 20 22 c15 16 20
35 20 76 0 30 -4 59 -8 65 -14 22 -51 34 -101 34 l-51 0 0 -170z m118 128 c16
-16 16 -100 0 -116 -7 -7 -29 -12 -50 -12 l-38 0 0 70 0 70 38 0 c21 0 43 -5
50 -12z"/>
<path d="M510 520 c0 -13 7 -20 20 -20 13 0 20 7 20 20 0 13 -7 20 -20 20 -13
0 -20 -7 -20 -20z"/>
<path d="M1760 526 c0 -8 10 -16 23 -18 21 -3 22 -7 25 -136 l3 -132 -26 -10
c-40 -15 -20 -30 41 -30 41 0 54 4 54 15 0 8 -9 15 -20 15 -19 0 -20 7 -20
140 0 133 1 140 20 140 11 0 20 7 20 15 0 12 -13 15 -60 15 -45 0 -60 -3 -60
-14z"/>
<path d="M2400 491 l0 -49 -56 -4 c-74 -6 -84 -20 -84 -118 0 -104 8 -114 99
-116 l71 -2 0 169 c0 144 -2 169 -15 169 -11 0 -15 -12 -15 -49z m-2 -157 c3
-81 -9 -104 -57 -104 -41 0 -51 17 -51 90 0 78 10 92 65 88 l40 -3 3 -71z"/>
<path d="M3620 520 c0 -13 7 -20 20 -20 13 0 20 7 20 20 0 13 -7 20 -20 20
-13 0 -20 -7 -20 -20z"/>
<path d="M6990 520 c0 -13 7 -20 20 -20 13 0 20 7 20 20 0 13 -7 20 -20 20
-13 0 -20 -7 -20 -20z"/>
<path d="M7700 526 c0 -9 12 -16 33 -18 l32 -3 3 -139 c1 -82 7 -145 14 -153
15 -18 98 -17 98 1 0 10 -13 16 -37 18 l-38 3 -3 153 -3 152 -49 0 c-37 0 -50
-4 -50 -14z"/>
<path d="M3090 470 c0 -23 -4 -30 -20 -30 -11 0 -20 -7 -20 -15 0 -8 9 -15 20
-15 18 0 20 -7 20 -88 0 -73 3 -92 18 -105 24 -22 82 -23 82 -2 0 9 -9 15 -22
15 -44 0 -49 12 -46 96 l3 79 33 3 c46 5 43 32 -3 32 -32 0 -35 2 -35 30 0 20
-5 30 -15 30 -10 0 -15 -10 -15 -30z"/>
<path d="M4910 470 c0 -25 -4 -30 -25 -30 -32 0 -34 -27 -2 -32 21 -3 22 -8
25 -93 3 -101 11 -115 69 -115 45 0 45 28 1 32 l-33 3 -3 88 -3 87 36 0 c24 0
35 4 35 15 0 10 -11 15 -35 15 -32 0 -35 2 -35 30 0 20 -5 30 -15 30 -10 0
-15 -10 -15 -30z"/>
<path d="M5947 493 c-4 -3 -7 -17 -7 -30 0 -16 -6 -23 -20 -23 -11 0 -20 -7
-20 -15 0 -8 9 -15 19 -15 17 0 19 -9 23 -91 3 -102 14 -119 75 -119 45 0 45
28 1 32 l-33 3 -3 88 -3 87 36 0 c24 0 35 4 35 15 0 10 -11 15 -35 15 -32 0
-35 2 -35 30 0 28 -17 40 -33 23z"/>
<path d="M440 425 c0 -10 11 -15 35 -15 l35 0 0 -105 0 -105 50 0 c38 0 50 4
50 15 0 10 -10 15 -30 15 l-30 0 0 89 c0 49 -3 96 -6 105 -9 22 -104 23 -104
1z"/>
<path d="M742 430 c-29 -12 -42 -48 -42 -120 0 -81 21 -105 89 -105 l51 0 0
-42 c0 -32 4 -43 15 -43 13 0 15 24 15 160 l0 160 -52 -1 c-29 0 -63 -4 -76
-9z m98 -98 c0 -83 -9 -102 -46 -102 -50 0 -54 7 -54 90 0 86 2 88 63 89 l37
1 0 -78z"/>
<path d="M970 342 c0 -127 6 -135 94 -138 l66 -2 0 119 c0 99 -3 119 -15 119
-12 0 -15 -17 -15 -93 0 -101 -7 -117 -50 -117 -43 0 -50 16 -50 117 0 76 -3
93 -15 93 -12 0 -15 -18 -15 -98z"/>
<path d="M1270 433 c-31 -11 -40 -37 -40 -113 0 -98 10 -112 84 -118 47 -4 56
-2 56 12 0 12 -10 16 -43 16 -50 0 -67 13 -67 52 0 28 0 28 65 28 l65 0 0 40
c0 67 -56 106 -120 83z m78 -35 c7 -7 12 -22 12 -35 0 -21 -4 -23 -50 -23 -49
0 -50 1 -50 29 0 16 6 32 13 34 23 10 63 7 75 -5z"/>
<path d="M2000 318 c0 -98 3 -118 15 -118 12 0 15 17 15 93 0 101 7 117 51
117 48 0 59 -22 59 -121 0 -72 3 -89 15 -89 12 0 15 17 15 95 0 88 -2 98 -24
120 -21 21 -33 24 -85 22 l-61 -1 0 -118z"/>
<path d="M2520 345 c0 -88 2 -98 24 -120 21 -21 33 -24 80 -22 l56 2 0 118 c0
97 -3 117 -15 117 -12 0 -15 -18 -15 -99 0 -104 -3 -111 -50 -111 -39 0 -50
26 -50 121 0 72 -3 89 -15 89 -12 0 -15 -17 -15 -95z"/>
<path d="M2824 430 c-28 -11 -38 -54 -22 -88 10 -21 22 -28 53 -32 35 -4 40
-8 43 -34 4 -35 -10 -46 -60 -46 -27 0 -38 -4 -38 -15 0 -11 11 -15 43 -15 60
0 87 21 87 70 0 45 -26 70 -73 70 -26 0 -28 3 -25 33 3 30 6 32 46 35 28 2 42
8 42 18 0 16 -60 19 -96 4z"/>
<path d="M3300 424 c0 -8 9 -14 20 -14 18 0 20 -7 20 -86 0 -77 -2 -86 -20
-91 -11 -3 -20 -12 -20 -19 0 -10 16 -14 60 -14 47 0 60 3 60 15 0 9 -9 15
-25 15 -25 0 -25 1 -25 78 0 86 8 102 52 102 17 0 28 5 28 14 0 10 -19 13 -75
14 -59 0 -75 -3 -75 -14z"/>
<path d="M3550 425 c0 -10 11 -15 35 -15 l35 0 0 -105 0 -105 50 0 c38 0 50 4
50 15 0 10 -10 15 -30 15 l-30 0 0 105 0 105 -55 0 c-42 0 -55 -3 -55 -15z"/>
<path d="M3860 434 c-31 -13 -40 -38 -40 -113 0 -42 4 -81 8 -87 22 -34 132
-49 132 -19 0 11 -11 15 -36 15 -51 0 -74 15 -74 50 l0 30 65 0 65 0 0 43 c0
24 -6 51 -13 61 -13 18 -80 30 -107 20z m78 -36 c7 -7 12 -22 12 -35 0 -21 -4
-23 -50 -23 -46 0 -50 2 -50 23 0 30 18 47 50 47 14 0 31 -5 38 -12z"/>
<path d="M4112 424 c-15 -10 -22 -25 -22 -48 0 -44 18 -64 60 -68 33 -3 35 -5
35 -38 0 -35 0 -35 -47 -38 -34 -2 -48 -7 -48 -18 0 -16 64 -20 103 -5 30 12
43 55 28 94 -8 20 -20 28 -53 34 -35 7 -44 13 -46 32 -5 29 12 41 61 41 26 0
37 4 37 15 0 21 -78 20 -108 -1z"/>
<path d="M5090 319 c0 -99 3 -119 15 -119 12 0 15 18 15 99 0 91 2 100 20 106
35 11 40 -3 40 -106 0 -81 3 -99 15 -99 12 0 15 18 15 99 0 91 2 100 20 106
35 11 40 -3 40 -106 0 -81 3 -99 15 -99 12 0 15 18 15 105 0 101 -1 105 -25
121 -21 14 -31 15 -51 5 -14 -6 -31 -8 -37 -4 -6 4 -31 8 -54 9 l-43 3 0 -120z"/>
<path d="M6173 414 c-23 -23 -25 -31 -21 -99 4 -92 16 -107 92 -113 47 -4 56
-2 56 12 0 12 -10 16 -39 16 -59 0 -71 8 -71 46 l0 34 60 0 60 0 0 45 c0 57
-25 85 -75 85 -25 0 -44 -8 -62 -26z m91 -10 c10 -4 16 -18 16 -35 0 -28 -2
-29 -45 -29 -43 0 -45 1 -45 28 0 16 3 32 7 35 8 9 46 9 67 1z"/>
<path d="M6410 426 c0 -8 9 -16 20 -19 18 -5 20 -14 20 -87 0 -73 -2 -82 -20
-87 -11 -3 -20 -12 -20 -19 0 -10 16 -14 60 -14 47 0 60 3 60 15 0 9 -9 15
-25 15 -25 0 -25 1 -25 78 0 88 8 102 58 102 22 0 32 4 30 13 -7 18 -158 21
-158 3z"/>
<path d="M6644 425 c-3 -6 -3 -58 -2 -115 2 -72 7 -105 16 -108 9 -3 12 19 12
85 0 95 13 132 43 120 13 -5 17 -25 19 -103 2 -67 7 -99 16 -102 9 -3 12 19
12 85 0 95 13 132 43 120 13 -5 17 -25 19 -103 2 -67 7 -99 16 -102 9 -3 12
23 12 107 0 108 -1 112 -24 122 -17 8 -29 8 -45 0 -14 -8 -27 -8 -39 -2 -23
12 -93 10 -98 -4z"/>
<path d="M6920 425 c0 -10 11 -15 35 -15 l35 0 0 -106 0 -105 52 3 c60 4 81
28 24 28 l-36 0 0 105 0 105 -55 0 c-42 0 -55 -3 -55 -15z"/>
<path d="M7186 423 c-8 -20 -8 -187 0 -207 3 -9 12 -16 20 -16 11 0 14 21 14
99 0 105 3 111 54 111 39 0 46 -18 46 -117 0 -76 3 -93 15 -93 21 0 22 187 1
215 -18 25 -141 31 -150 8z"/>
<path d="M7460 426 c0 -12 9 -16 34 -16 50 0 66 -9 66 -36 0 -21 -5 -24 -39
-24 -56 0 -84 -26 -84 -79 0 -23 6 -48 12 -54 16 -16 171 -18 171 -3 0 7 -4
16 -9 22 -5 5 -11 44 -13 86 -4 93 -16 109 -87 116 -42 4 -51 2 -51 -12z m98
-148 c-3 -43 -3 -43 -43 -43 -38 0 -40 2 -43 34 -4 39 9 51 56 51 33 0 33 0
30 -42z"/>
</g>
</svg>
